<svg width="46" height="46" viewBox="0 0 46 46" fill="none" xmlns="http://www.w3.org/2000/svg">
<rect width="46" height="46" rx="10" fill="white"/>
<path d="M15.116 22.8C15.116 21.252 16.28 20.34 17.636 20.34C18.824 20.34 19.592 20.856 20.144 21.444V19.26C19.46 18.732 18.74 18.408 17.516 18.408C14.816 18.408 12.908 20.184 12.908 22.8C12.908 25.416 14.816 27.192 17.516 27.192C18.74 27.192 19.46 26.868 20.144 26.34V24.156C19.592 24.744 18.824 25.26 17.636 25.26C16.28 25.26 15.116 24.348 15.116 22.8ZM20.9741 21.48V22.98H21.9461V27H23.6861V22.98H24.6701V21.48H23.6861V19.56H21.9461V21.48H20.9741ZM28.8264 23.352L29.6064 21.804C29.4144 21.528 29.0064 21.348 28.6104 21.348C28.0944 21.348 27.5784 21.66 27.2304 22.176V21.48H25.4424V27H27.2304V24.276C27.2304 23.484 27.5784 23.04 28.1184 23.04C28.4304 23.04 28.6344 23.16 28.8264 23.352ZM30.376 17.64V27H32.2V17.64H30.376Z" fill="url(#paint0_linear)"/>
<defs>
<linearGradient id="paint0_linear" x1="12.5" y1="23.0816" x2="27.5244" y2="23.0816" gradientUnits="userSpaceOnUse">
<stop stop-color="#FFA760"/>
<stop offset="1" stop-color="#FF5D83"/>
</linearGradient>
</defs>
</svg>
